<svg width="564" height="716" viewBox="0 0 564 716" fill="none" xmlns="http://www.w3.org/2000/svg">
<path d="M220.611 209.365L163.268 233.243C163.268 233.243 191.94 288.959 249.283 293.735C306.626 298.51 339.247 276.495 350.811 257.249C362.376 238.003 365.561 223.692 365.561 223.692L309.811 199.813L220.611 209.365Z" fill="#F57373"/>
<path d="M256.451 60.5235C256.451 60.5235 186.365 71.6667 191.143 124.199C195.922 176.731 202.293 203.793 215.036 227.671C227.779 251.55 234.151 269.745 256.451 272.579C278.751 275.412 297.865 272.244 315.386 238.815C332.908 205.385 342.465 200.609 348.837 146.485C355.208 92.3612 347.244 63.7072 309.015 58.9316C270.786 54.1559 256.451 60.5235 256.451 60.5235Z" fill="#F69586"/>
<path d="M197.515 124.199C197.515 124.199 181.586 122.607 183.179 133.75C184.772 144.893 190.904 165.27 190.904 165.27C190.904 165.27 192.736 175.139 200.7 171.956L197.515 124.199Z" fill="#F69586"/>
<path d="M347.084 127.383C347.084 127.383 362.185 125.791 360.687 136.934C359.19 148.077 353.36 168.453 353.36 168.453C353.36 168.453 351.624 178.323 344.074 175.139L347.1 127.383H347.084Z" fill="#F69586"/>
<path d="M265.211 145.689C265.211 145.689 246.097 144.098 240.522 136.934C232.876 127.112 227.779 108.28 227.779 108.28C227.779 108.28 224.593 98.7288 219.815 100.321C215.036 101.913 210.258 101.913 205.479 113.056C200.7 124.199 193.708 150.242 194.807 157.119C194.807 157.119 187.289 128.815 184.437 124.119C181.586 119.423 176.808 109.872 179.993 103.504C183.179 97.1369 178.4 95.545 179.993 85.9937C181.586 76.4424 176.808 73.2586 186.365 62.1154C195.922 50.9722 189.55 41.4209 199.108 33.4615C208.665 25.5021 202.293 22.3183 219.815 15.9508C237.336 9.58322 229.372 1.62379 253.265 3.21567C277.158 4.80756 278.751 -4.74375 297.865 3.21567C316.979 11.1751 328.129 1.62379 336.094 12.767C344.058 23.9102 363.172 31.8696 363.172 46.1966C363.172 60.5236 375.915 63.7073 372.729 79.6262C369.544 95.545 372.729 103.504 364.765 114.648C356.801 125.791 361.579 135.342 355.208 144.893C348.837 154.445 346.75 161.815 346.75 161.815C346.75 161.815 345.651 125.791 342.465 116.24C339.279 106.688 337.686 95.545 331.315 97.1369C324.944 98.7288 320.165 98.7288 316.979 109.872C313.794 121.015 306.881 141.837 297.069 144.098C276.361 148.873 265.211 145.689 265.211 145.689Z" fill="#010101"/>
<path d="M195.922 213.344C195.922 213.344 203.886 280.204 266.008 280.204C328.129 280.204 349.012 213.344 349.012 213.344C349.012 213.344 377.508 226.08 412.551 241.998C447.594 257.917 475.31 273.39 475.31 273.39C475.31 273.39 479.993 277.02 479.722 280.204C479.451 283.387 479.451 278.612 484.23 283.387C489.008 288.163 528.83 378.901 532.015 399.595C535.201 420.29 562.28 471.23 562.28 471.23C562.28 471.23 567.058 474.414 560.687 477.597C554.315 480.781 533.608 493.516 519.273 493.516C504.937 493.516 471.487 507.843 471.487 507.843L60.5287 472.822C60.5287 472.822 46.193 464.862 28.6715 463.27C11.15 461.679 6.37144 461.679 6.37144 461.679C6.37144 461.679 0 461.679 0 455.311C0 448.944 1.59286 447.352 7.9643 428.249C14.3357 409.146 35.0429 326.368 35.0429 326.368C35.0429 326.368 52.5644 273.836 70.0859 262.693C87.6073 251.55 195.922 213.344 195.922 213.344Z" fill="#EDCBB7"/>
<path d="M539.98 471.23C539.98 471.23 549.537 577.886 546.351 589.03C543.166 600.173 547.944 608.132 461.93 649.521L465.115 483.965L539.98 471.23Z" fill="#F57373"/>
<path d="M12.7429 455.311C12.7429 455.311 4.77856 566.743 4.77856 581.07C4.77856 595.397 6.37142 606.54 73.2716 641.562L74.8644 445.76L12.7429 455.311Z" fill="#F57373"/>
<path d="M66.9002 461.679H475.405C475.405 461.679 486.109 460.787 486.109 472.376C486.109 483.965 477.858 697.278 477.858 697.278C477.858 697.278 481.044 715.378 461.93 715.378C442.815 715.378 74.8645 713.69 74.8645 713.69C74.8645 713.69 63.7145 716.38 63.7145 698.87C63.7145 681.359 57.3272 471.23 57.3272 471.23C57.3272 471.23 55.7502 461.679 66.9002 461.679Z" fill="#606060"/>
</svg>
